#!OML:ASF X:\für Bonn\!DataBase\2005_08_12_Daniel\c3d\Daniel.ASF
:FULLY-SPECIFIED
:DEGREES
125
root 1.49885 14.9747 1.66952 -577.868 -93.6549 562.928
lowerback 23.4832 0.478891 4.39549
upperback -0.430011 1.17848 -4.05378
thorax -13.5633 -0.0110946 -7.60874
lowerneck 4.44116 -3.86565 -0.850663
upperneck -2.59368 -5.24993 -1.10613
head -1.55766 -2.5884 -0.0614436
rclavicle 1.799e-014 -1.43125e-014
rhumerus 55.847 1.05587 -74.4805
rradius 89.1729
rwrist 32.7239
rhand -64.003 424.384
rfingers 7.12502
rthumb -35.9538 38.0563
lclavicle 1.799e-014 -1.43125e-014
lhumerus -121.628 209.245 -111.179
lradius 90.0033
lwrist 27.9214
lhand -27.5273 -13.269
lfingers 7.12502
lthumb -0.929416 16.7087
rfemur -18.1632 -13.3928 3.77623
rtibia 77.0012
rfoot -20.5851 7.60128
rtoes -9.713
lfemur -198.789 185.798 -201.855
ltibia 72.7029
lfoot 323.222 -8.38908
ltoes 1.26073
126
root 1.43703 14.9073 1.65299 -575.918 -94.0831 560.775
lowerback 23.1616 0.508186 4.29974
upperback -0.634099 1.18093 -4.10722
thorax -13.6221 -0.0105853 -7.61007
lowerneck 4.19393 -4.09184 -0.538343
upperneck -2.06018 -5.53567 -1.47823
head -1.365 -2.73266 -0.232728
rclavicle -9.93923e-016 -3.97569e-015
rhumerus 56.8025 0.344481 -74.3017
rradius 90.0249
rwrist 33.1026
rhand -64.4446 427.003
rfingers 7.12502
rthumb -36.372 40.7783
lclavicle -9.93923e-016 -3.97569e-015
lhumerus -120.891 209.532 -111.321
lradius 90.2327
lwrist 29.5447
lhand -27.0693 -14.6923
lfingers 7.12502
lthumb -0.486984 15.2869
rfemur -17.8686 -13.7539 3.39023
rtibia 77.7265
rfoot -20.9603 7.98142
rtoes -9.76468
lfemur -198.848 185.857 -201.834
ltibia 73.5206
lfoot 323.038 -8.91997
ltoes 1.2904
127
root 1.37681 14.8393 1.63623 -574.341 -94.5004 558.987
lowerback 22.8941 0.53993 4.18785
upperback -0.852726 1.18503 -4.14981
thorax -13.7285 -0.010448 -7.5936
lowerneck 3.87926 -4.30374 -0.250747
upperneck -1.43347 -5.80078 -1.84478
head -1.13453 -2.86864 -0.401227
rclavicle -1.94809e-014 3.02153e-014
rhumerus 57.7066 -0.294688 -74.1257
rradius 90.9509
rwrist 33.4787
rhand -64.8534 428.811
rfingers 7.12502
rthumb -36.7589 42.6843
lclavicle -1.94809e-014 3.02153e-014
lhumerus -120.273 209.823 -111.385
lradius 90.395
lwrist 31.2781
lhand -26.513 -15.8847
lfingers 7.12502
lthumb 0.050286 14.0951
rfemur -17.5528 -14.0935 3.01793
rtibia 78.4279
rfoot -21.3263 8.34495
rtoes -9.82239
lfemur -198.893 185.93 -201.807
ltibia 74.3173
lfoot 322.891 -9.41184
ltoes 1.36886
128
root 1.31711 14.7771 1.61949 -573.095 -94.9537 557.566
lowerback 22.5891 0.560939 4.05265
upperback -1.05542 1.1691 -4.1811
thorax -13.7977 -0.0148669 -7.54037
lowerneck 3.50689 -4.50517 -0.0998954
upperneck -0.837587 -6.05616 -2.14564
head -0.901639 -3.0011 -0.52873
rclavicle 2.5842e-015 -1.27222e-014
rhumerus 58.6177 -0.864666 -73.9163
rradius 91.8889
rwrist 33.7707
rhand -65.1808 430.288
rfingers 7.12502
rthumb -37.0686 44.2414
lclavicle 2.5842e-015 -1.27222e-014
lhumerus -119.718 210.095 -111.451
lradius 90.5765
lwrist 33.0026
lhand -26.0197 -16.6863
lfingers 7.12502
lthumb 0.526706 13.2927
rfemur -17.235 -14.4687 2.62448
rtibia 79.0733
rfoot -21.6834 8.66343
rtoes -9.79427
lfemur -198.953 186.05 -201.807
ltibia 75.0655
lfoot 322.743 -9.9075
ltoes 1.41696
